<svg width="219" height="64" viewBox="0 0 219 64" fill="none" xmlns="http://www.w3.org/2000/svg">
<path fill-rule="evenodd" clip-rule="evenodd" d="M9 11H0V20H9V29H0V38H9V29H18V20H27V37H18V46L9 46V55H18V64H27H36H97V11H36V20H27V11H18V20H9V11ZM18 55H27V46H18V55Z" fill="#D42027"/>
<path fill-rule="evenodd" clip-rule="evenodd" d="M86.8624 20.5404C87.157 20.7575 87.4062 21.0308 87.5958 21.3448C87.7854 21.6588 87.9117 22.0073 87.9674 22.3704C88.0232 22.7335 88.0073 23.104 87.9207 23.4609C87.8341 23.8179 87.6784 24.1541 87.4627 24.4505L80.7337 33.6694C80.5471 34.0111 80.2909 34.3092 79.9818 34.5442C79.6727 34.7792 79.3177 34.9458 78.9401 35.0331C78.5625 35.1204 78.1708 35.1263 77.7908 35.0506C77.4107 34.9748 77.0509 34.819 76.7349 34.5935C76.4189 34.368 76.1538 34.0778 75.9571 33.7419C75.7604 33.4061 75.6364 33.0322 75.5934 32.6447C75.5504 32.2573 75.5892 31.8651 75.7074 31.4938C75.8256 31.1225 76.0205 30.7806 76.2793 30.4905L83.0083 21.2716C83.4242 20.6618 84.0631 20.2425 84.7854 20.1055C85.5076 19.9685 86.2544 20.1249 86.8624 20.5404ZM69.9294 22.7975C69.9294 22.4343 69.8583 22.0746 69.7201 21.7391C69.582 21.4035 69.3796 21.0987 69.1244 20.8418C68.8691 20.585 68.5661 20.3813 68.2327 20.2423C67.8992 20.1033 67.5418 20.0318 67.1809 20.0318C66.82 20.0318 66.4626 20.1033 66.1291 20.2423C65.7957 20.3813 65.4927 20.585 65.2374 20.8418C64.9822 21.0987 64.7798 21.4035 64.6416 21.7391C64.5035 22.0746 64.4324 22.4343 64.4324 22.7975V33.9873C64.4324 34.7208 64.722 35.4242 65.2374 35.9429C65.7529 36.4616 66.452 36.753 67.1809 36.753C67.9098 36.753 68.6089 36.4616 69.1244 35.9429C69.6398 35.4242 69.9294 34.7208 69.9294 33.9873V22.7975ZM45.1616 20C44.4794 20.0735 43.8483 20.3982 43.3897 20.9117C42.9311 21.4252 42.6774 22.0912 42.6774 22.7816C42.6774 23.4719 42.9311 24.1379 43.3897 24.6514C43.8483 25.1649 44.4794 25.4896 45.1616 25.5631H51.4799C52.1621 25.4896 52.7931 25.1649 53.2517 24.6514C53.7103 24.1379 53.964 23.4719 53.964 22.7816C53.964 22.0912 53.7103 21.4252 53.2517 20.9117C52.7931 20.3982 52.1621 20.0735 51.4799 20H45.1616ZM45.1616 39.0736C44.4326 39.0736 43.7335 39.365 43.2181 39.8836C42.7027 40.4023 42.4131 41.1057 42.4131 41.8392C42.4131 42.5727 42.7027 43.2762 43.2181 43.7949C43.7335 44.3135 44.4326 44.6049 45.1616 44.6049H51.4799C52.2088 44.6049 52.9079 44.3135 53.4233 43.7949C53.9388 43.2762 54.2283 42.5727 54.2283 41.8392C54.2283 41.1057 53.9388 40.4023 53.4233 39.8836C52.9079 39.365 52.2088 39.0736 51.4799 39.0736H45.1616ZM69.9294 37.8974C69.9377 37.161 70.2342 36.4576 70.7547 35.9398C71.2752 35.422 71.9775 35.1317 72.7094 35.1317H73.4992C74.2282 35.1317 74.9272 35.4231 75.4427 35.9418C75.9581 36.4604 76.2477 37.1639 76.2477 37.8974C76.2477 38.6309 75.9581 39.3343 75.4427 39.853C74.9272 40.3717 74.2282 40.663 73.4992 40.663H72.7094C72.3417 40.6631 71.9776 40.5897 71.6382 40.4471C71.2988 40.3045 70.9909 40.0956 70.7324 39.8325C70.4738 39.5693 70.2697 39.2572 70.1318 38.9141C69.994 38.571 69.9252 38.2038 69.9294 37.8338V37.8974ZM41.4969 26.0082C41.4969 25.2747 41.2074 24.5712 40.6919 24.0526C40.1765 23.5339 39.4774 23.2425 38.7485 23.2425C38.0195 23.2425 37.3204 23.5339 36.805 24.0526C36.2896 24.5712 36 25.2747 36 26.0082V37.1662C36 37.8997 36.2896 38.6032 36.805 39.1218C37.3204 39.6405 38.0195 39.9319 38.7485 39.9319C39.4774 39.9319 40.1765 39.6405 40.6919 39.1218C41.2074 38.6032 41.4969 37.8997 41.4969 37.1662V26.0082ZM57.6402 23.2425C58.3692 23.2425 59.0683 23.5339 59.5837 24.0526C60.0991 24.5712 60.3887 25.2747 60.3887 26.0082V37.1662C60.3157 37.8527 59.993 38.4877 59.4827 38.9491C58.9724 39.4106 58.3105 39.6659 57.6244 39.6659C56.9384 39.6659 56.2765 39.4106 55.7662 38.9491C55.2559 38.4877 54.9332 37.8527 54.8602 37.1662V25.9446C54.8596 25.5676 54.9355 25.1945 55.0834 24.8482C55.2313 24.5018 55.448 24.1896 55.7202 23.9306C55.9924 23.6716 56.3143 23.4713 56.6662 23.342C57.0182 23.2128 57.3926 23.1573 57.7666 23.1789L57.6402 23.2425ZM76.1529 44.5731C75.9388 44.2818 75.7844 43.9506 75.6987 43.5988C75.6129 43.2469 75.5975 42.8814 75.6534 42.5235C75.7092 42.1656 75.8352 41.8225 76.024 41.514C76.2128 41.2055 76.4607 40.9379 76.7531 40.7266C77.0432 40.5087 77.3732 40.3506 77.7242 40.2614C78.0752 40.1722 78.4403 40.1537 78.7984 40.2069C79.1565 40.26 79.5007 40.3839 79.8111 40.5713C80.1215 40.7587 80.3921 41.0059 80.6073 41.2988L87.2731 50.4859C87.4872 50.7772 87.6416 51.1084 87.7274 51.4603C87.8131 51.8121 87.8285 52.1776 87.7727 52.5355C87.7168 52.8934 87.5908 53.2366 87.402 53.5451C87.2132 53.8535 86.9654 54.1212 86.6729 54.3324C86.0841 54.7643 85.3503 54.9463 84.6295 54.8393C83.9087 54.7323 83.2585 54.3448 82.8187 53.7602L76.1529 44.5731ZM67.0545 39.0736C67.7835 39.0736 68.4825 39.365 68.998 39.8836C69.5134 40.4023 69.803 41.1057 69.803 41.8392V52.139C69.803 52.8725 69.5134 53.5759 68.998 54.0946C68.4825 54.6133 67.7835 54.9046 67.0545 54.9046C66.3256 54.9046 65.6265 54.6133 65.1111 54.0946C64.5956 53.5759 64.306 52.8725 64.306 52.139V41.7757C64.3057 41.4015 64.3807 41.0312 64.5267 40.6871C64.6726 40.343 64.8865 40.0322 65.1552 39.7737C65.424 39.5151 65.7421 39.3141 66.0903 39.1829C66.4384 39.0516 66.8095 38.9928 67.1809 39.01L67.0545 39.0736ZM41.6233 43.5241C41.6233 42.7906 41.3337 42.0871 40.8183 41.5684C40.3029 41.0498 39.6038 40.7584 38.8748 40.7584C38.1459 40.7584 37.4468 41.0498 36.9314 41.5684C36.4159 42.0871 36.1264 42.7906 36.1264 43.5241V52.2343C36.1264 52.9678 36.4159 53.6713 36.9314 54.19C37.4468 54.7086 38.1459 55 38.8748 55C39.6038 55 40.3029 54.7086 40.8183 54.19C41.3337 53.6713 41.6233 52.9678 41.6233 52.2343V43.5241Z" fill="white"/>
<g opacity="0.55">
<path d="M114.124 20.9771C119.603 20.9771 122.343 24.1625 122.343 28.0488C122.379 29.5215 121.903 30.9612 120.997 32.1228C120.091 33.2844 118.81 34.0961 117.373 34.4197L122.661 43.2753H116.481L111.83 34.802H110.524V43.2753H105.045V20.9771H114.124ZM113.805 25.5004H110.524V31.075H113.901C115.94 31.075 116.895 30.0238 116.895 28.2718C116.895 26.5198 115.94 25.4686 113.901 25.4686L113.805 25.5004Z" fill="black"/>
<path d="M125.878 20.9771H140.468V25.3411H131.326V30.0875H138.174V34.3242H131.326V43.2753H125.878V20.9771Z" fill="black"/>
<path d="M146.169 27.952C145.164 27.959 144.183 27.6467 143.366 27.0601V43.2741H148.813V27.3468C148.006 27.7914 147.09 28.001 146.169 27.952Z" fill="black"/>
<path d="M172.928 32.1576C172.969 33.6836 172.688 35.2011 172.103 36.6112C171.518 38.0213 170.642 39.2923 169.533 40.3413C168.424 41.3902 167.106 42.1936 165.666 42.6991C164.226 43.2046 162.695 43.4008 161.173 43.2749H152.764V20.9766H161.173C162.701 20.8448 164.24 21.039 165.687 21.5464C167.134 22.0537 168.458 22.8627 169.569 23.9197C170.68 24.9767 171.554 26.2577 172.133 27.6779C172.712 29.098 172.983 30.6249 172.928 32.1576ZM160.823 38.5285C161.677 38.5956 162.535 38.4769 163.338 38.1804C164.142 37.884 164.871 37.4169 165.477 36.8114C166.082 36.2058 166.549 35.4762 166.846 34.6728C167.142 33.8694 167.261 33.0113 167.194 32.1576C167.274 31.2923 167.165 30.42 166.876 29.6005C166.587 28.7811 166.124 28.034 165.518 27.4105C164.913 26.7871 164.18 26.302 163.369 25.9887C162.559 25.6754 161.69 25.5413 160.823 25.5955H158.243V38.6241L160.823 38.5285Z" fill="black"/>
</g>
<path d="M151.14 19.6074C150.803 19.6101 150.471 19.5267 150.176 19.365C149.88 19.2033 149.631 18.9688 149.452 18.6836C149.07 18.2012 148.587 17.8085 148.036 17.5333C147.486 17.2581 146.882 17.1071 146.266 17.0908C145.599 17.0809 144.939 17.2252 144.336 17.5125C143.734 17.7998 143.206 18.2224 142.794 18.7473C142.481 19.1764 142.013 19.4664 141.49 19.5556C140.966 19.6449 140.429 19.5263 139.991 19.2251C139.773 19.0752 139.586 18.8835 139.442 18.6612C139.298 18.4389 139.2 18.1902 139.152 17.9296C139.105 17.6691 139.11 17.4017 139.166 17.1429C139.223 16.8841 139.33 16.6391 139.481 16.4219C140.268 15.3915 141.279 14.5545 142.439 13.9748C143.598 13.3951 144.875 13.0881 146.171 13.0772C147.467 13.0754 148.745 13.3839 149.898 13.9769C151.05 14.5698 152.044 15.43 152.797 16.4856C152.944 16.7085 153.045 16.9586 153.094 17.2211C153.143 17.4836 153.14 17.7534 153.083 18.0144C153.027 18.2755 152.919 18.5227 152.766 18.7415C152.613 18.9604 152.417 19.1464 152.191 19.2888C151.881 19.4973 151.515 19.6082 151.14 19.6074Z" fill="#5A96A0"/>
<path d="M158.306 18.2375C157.884 18.2392 157.472 18.1078 157.129 17.8619C156.786 17.6159 156.529 17.2681 156.395 16.8677C155.455 14.9672 154.003 13.3672 152.201 12.2486C150.4 11.13 148.322 10.5372 146.202 10.5372C144.081 10.5372 142.003 11.13 140.202 12.2486C138.401 13.3672 136.948 14.9672 136.008 16.8677C135.818 17.3474 135.45 17.7353 134.981 17.9507C134.511 18.1661 133.977 18.1924 133.489 18.0243C133.001 17.8562 132.597 17.5064 132.36 17.0478C132.123 16.5892 132.072 16.057 132.217 15.5617C133.432 12.8652 135.399 10.5766 137.882 8.9712C140.366 7.36577 143.26 6.51172 146.218 6.51172C149.175 6.51172 152.069 7.36577 154.553 8.9712C157.036 10.5766 159.004 12.8652 160.218 15.5617C160.391 16.0687 160.358 16.6238 160.126 17.1067C159.893 17.5896 159.48 17.9615 158.975 18.1419C158.758 18.2049 158.533 18.2371 158.306 18.2375Z" fill="#5A96A0"/>
<path d="M165.092 17.0911C164.671 17.0881 164.261 16.9548 163.919 16.7096C163.576 16.4643 163.319 16.1191 163.18 15.7214C161.866 12.3108 159.549 9.37826 156.536 7.30999C153.522 5.24172 149.953 4.1347 146.297 4.1347C142.642 4.1347 139.073 5.24172 136.059 7.30999C133.045 9.37826 130.729 12.3108 129.414 15.7214C129.332 15.973 129.2 16.2057 129.027 16.4061C128.854 16.6066 128.642 16.7707 128.406 16.8892C128.169 17.0076 127.911 17.078 127.646 17.0963C127.382 17.1145 127.117 17.0803 126.866 16.9956C126.363 16.8213 125.948 16.4571 125.71 15.9809C125.472 15.5047 125.429 14.9542 125.592 14.4472C127.17 10.2296 129.998 6.59439 133.698 4.028C137.399 1.46161 141.794 0.0864258 146.297 0.0864258C150.801 0.0864258 155.196 1.46161 158.897 4.028C162.597 6.59439 165.425 10.2296 167.003 14.4472C167.088 14.6981 167.122 14.9634 167.104 15.2276C167.085 15.4918 167.015 15.7498 166.897 15.9867C166.778 16.2236 166.614 16.4347 166.414 16.6079C166.213 16.781 165.98 16.9128 165.729 16.9956C165.523 17.061 165.308 17.0933 165.092 17.0911Z" fill="#5A96A0"/>
<path d="M146.139 25.3405C147.775 25.3405 149.101 24.0141 149.101 22.378C149.101 20.7419 147.775 19.4155 146.139 19.4155C144.503 19.4155 143.176 20.7419 143.176 22.378C143.176 24.0141 144.503 25.3405 146.139 25.3405Z" fill="#5A96A0"/>
<path d="M216.006 56.329V61.3696H214.466V52.1003H216.006V53.6057C216.53 52.5739 217.528 51.9312 218.999 51.9312V53.5211H218.594C217.122 53.5211 216.006 54.1808 216.006 56.329Z" fill="black" fill-opacity="0.5"/>
<path d="M207.918 53.2507C206.412 53.2507 205.161 54.2487 204.991 56.0586H210.844C210.861 54.2487 209.508 53.2507 207.918 53.2507ZM212.248 58.5112C211.774 60.2027 210.286 61.522 207.985 61.522C205.347 61.522 203.401 59.6614 203.401 56.7182C203.401 53.792 205.279 51.9482 207.985 51.9482C210.675 51.9482 212.434 53.8427 212.434 56.3799C212.434 56.7182 212.417 56.9889 212.383 57.3102H204.974C205.093 59.1878 206.412 60.2196 207.985 60.2196C209.372 60.2196 210.252 59.5092 210.59 58.5112H212.248Z" fill="black" fill-opacity="0.5"/>
<path d="M195.271 61.37V48.853H196.811V56.211L200.38 52.1007H202.528L198.164 56.7184L202.545 61.37H200.447L196.811 57.2766V61.37H195.271Z" fill="black" fill-opacity="0.5"/>
<path d="M184.422 56.7182C184.422 53.8089 186.3 51.9482 188.939 51.9482C191.239 51.9482 192.744 53.1323 193.218 55.0775H191.56C191.239 53.9611 190.309 53.2507 188.939 53.2507C187.247 53.2507 185.995 54.4516 185.995 56.7182C185.995 59.0186 187.247 60.2196 188.939 60.2196C190.309 60.2196 191.222 59.5599 191.56 58.3928H193.218C192.744 60.2365 191.239 61.522 188.939 61.522C186.3 61.522 184.422 59.6614 184.422 56.7182Z" fill="black" fill-opacity="0.5"/>
<path d="M172.992 56.7013C172.992 53.8089 174.903 51.9482 177.39 51.9482C179.115 51.9482 180.299 52.8278 180.84 53.792V52.1005H182.396V61.3698H180.84V59.6445C180.282 60.6425 179.081 61.522 177.373 61.522C174.903 61.522 172.992 59.5768 172.992 56.7013ZM180.84 56.7182C180.84 54.57 179.386 53.2845 177.694 53.2845C176.003 53.2845 174.565 54.5193 174.565 56.7013C174.565 58.8833 176.003 60.1689 177.694 60.1689C179.386 60.1689 180.84 58.9002 180.84 56.7182Z" fill="black" fill-opacity="0.5"/>
<path d="M168.796 56.329V61.3696H167.257V52.1003H168.796V53.6057C169.32 52.5739 170.318 51.9312 171.79 51.9312V53.5211H171.384C169.912 53.5211 168.796 54.1808 168.796 56.329Z" fill="black" fill-opacity="0.5"/>
<path d="M161.434 58.8325V53.369H160.233V52.1004H161.434V49.7661H162.973V52.1004H165.392V53.369H162.973V58.8325C162.973 59.7459 163.311 60.0673 164.259 60.0673H165.392V61.3697H164.005C162.364 61.3697 161.434 60.6931 161.434 58.8325Z" fill="black" fill-opacity="0.5"/>
<path d="M150.762 58.8325V53.369H149.562V52.1004H150.762V49.7661H152.302V52.1004H154.721V53.369H152.302V58.8325C152.302 59.7459 152.64 60.0673 153.587 60.0673H154.721V61.3697H153.334C151.693 61.3697 150.762 60.6931 150.762 58.8325Z" fill="black" fill-opacity="0.5"/>
<path d="M145.653 56.329V61.3696H144.114V52.1003H145.653V53.6057C146.177 52.5739 147.175 51.9312 148.647 51.9312V53.5211H148.241C146.769 53.5211 145.653 54.1808 145.653 56.329Z" fill="black" fill-opacity="0.5"/>
<path d="M132.108 56.7013C132.108 53.8089 134.019 51.9482 136.506 51.9482C138.231 51.9482 139.415 52.8278 139.956 53.792V52.1005H141.513V61.3698H139.956V59.6445C139.398 60.6425 138.197 61.522 136.489 61.522C134.019 61.522 132.108 59.5768 132.108 56.7013ZM139.956 56.7182C139.956 54.57 138.502 53.2845 136.81 53.2845C135.119 53.2845 133.681 54.5193 133.681 56.7013C133.681 58.8833 135.119 60.1689 136.81 60.1689C138.502 60.1689 139.956 58.9002 139.956 56.7182Z" fill="black" fill-opacity="0.5"/>
<path d="M128.636 61.3696V56.126C128.636 54.2316 127.622 53.2674 126.099 53.2674C124.543 53.2674 123.477 54.2654 123.477 56.2614V61.3696H121.955V56.126C121.955 54.2316 120.94 53.2674 119.418 53.2674C117.862 53.2674 116.796 54.2654 116.796 56.2614V61.3696H115.257V52.1003H116.796V53.4366C117.405 52.4555 118.504 51.9312 119.722 51.9312C121.245 51.9312 122.513 52.6077 123.122 53.9948C123.664 52.6585 124.983 51.9312 126.404 51.9312C128.518 51.9312 130.159 53.2505 130.159 55.9061V61.3696H128.636Z" fill="black" fill-opacity="0.5"/>
<path d="M112.992 58.1553C112.992 59.8299 111.622 61.4875 109.068 61.4875C106.7 61.4875 105.025 60.1682 104.991 58.223H106.632C106.733 59.204 107.427 60.1851 109.068 60.1851C110.556 60.1851 111.436 59.3393 111.436 58.223C111.436 55.043 105.059 57.0728 105.059 52.6918C105.059 50.7466 106.632 49.4272 108.966 49.4272C111.216 49.4272 112.687 50.662 112.874 52.455H111.182C111.081 51.66 110.336 50.7635 108.899 50.7466C107.63 50.7128 106.632 51.3725 106.632 52.6411C106.632 55.6857 112.992 53.7913 112.992 58.1553Z" fill="black" fill-opacity="0.5"/>
</svg>
