<?xml version="1.0" encoding="iso-8859-1"?>
<!-- Uploaded to: SVG Repo, www.svgrepo.com, Generator: SVG Repo Mixer Tools -->
<svg height="800px" width="800px" version="1.1" id="Layer_1" xmlns="http://www.w3.org/2000/svg" xmlns:xlink="http://www.w3.org/1999/xlink" 
	 viewBox="0 0 512 512" xml:space="preserve">
<g transform="translate(1 1)">
	<g>
		<polygon style="fill:#FFE100;" points="33.133,502.467 84.333,502.467 84.333,383 33.133,383 		"/>
		<polygon style="fill:#FFE100;" points="331.8,502.467 502.467,502.467 502.467,7.533 331.8,7.533 		"/>
	</g>
	<polygon style="fill:#FFA800;" points="485.4,502.467 502.467,502.467 502.467,7.533 485.4,7.533 	"/>
	<g>
		<path style="fill:#FFE100;" d="M331.8,280.6H58.733c-28.16,0-51.2,23.04-51.2,51.2s23.04,51.2,51.2,51.2H331.8V280.6z"/>
		<path style="fill:#FFE100;" d="M289.133,280.6h-102.4v-93.867c0-4.267,3.413-8.533,8.533-8.533H280.6
			c4.267,0,8.533,3.413,8.533,8.533V280.6z"/>
		<path style="fill:#FFE100;" d="M144.067,280.6h-102.4v-93.867c0-4.267,3.413-8.533,8.533-8.533h85.333
			c4.267,0,8.533,3.413,8.533,8.533V280.6z"/>
	</g>
	<g>
		<polygon style="fill:#FFFFFF;" points="33.133,502.467 50.2,502.467 50.2,383 33.133,383 		"/>
		<path style="fill:#FFFFFF;" d="M24.6,331.8c0-28.16,23.04-51.2,51.2-51.2H58.733c-28.16,0-51.2,23.04-51.2,51.2
			s23.04,51.2,51.2,51.2H75.8C47.64,383,24.6,359.96,24.6,331.8"/>
		<path style="fill:#FFFFFF;" d="M67.267,178.2H50.2c-4.267,0-8.533,3.413-8.533,8.533V280.6h17.067v-93.867
			C58.733,181.613,62.147,178.2,67.267,178.2"/>
	</g>
	<g>
		<polygon style="fill:#63D3FD;" points="365.933,109.933 468.333,109.933 468.333,41.667 365.933,41.667 		"/>
		<polygon style="fill:#63D3FD;" points="365.933,237.933 400.067,237.933 400.067,203.8 365.933,203.8 		"/>
		<polygon style="fill:#63D3FD;" points="365.933,306.2 468.333,306.2 468.333,272.067 365.933,272.067 		"/>
		<polygon style="fill:#63D3FD;" points="434.2,237.933 468.333,237.933 468.333,203.8 434.2,203.8 		"/>
		<polygon style="fill:#63D3FD;" points="75.8,212.333 109.933,212.333 109.933,178.2 75.8,178.2 		"/>
		<polygon style="fill:#63D3FD;" points="220.867,212.333 255,212.333 255,178.2 220.867,178.2 		"/>
		<path style="fill:#63D3FD;" d="M84.333,331.8c0,9.387-7.68,17.067-17.067,17.067S50.2,341.187,50.2,331.8
			s7.68-17.067,17.067-17.067S84.333,322.413,84.333,331.8"/>
		<path style="fill:#63D3FD;" d="M152.6,331.8c0,9.387-7.68,17.067-17.067,17.067s-17.067-7.68-17.067-17.067
			s7.68-17.067,17.067-17.067S152.6,322.413,152.6,331.8"/>
		<path style="fill:#63D3FD;" d="M220.867,331.8c0,9.387-7.68,17.067-17.067,17.067c-9.387,0-17.067-7.68-17.067-17.067
			s7.68-17.067,17.067-17.067C213.187,314.733,220.867,322.413,220.867,331.8"/>
		<path style="fill:#63D3FD;" d="M289.133,331.8c0,9.387-7.68,17.067-17.067,17.067S255,341.187,255,331.8
			s7.68-17.067,17.067-17.067S289.133,322.413,289.133,331.8"/>
	</g>
	<path d="M468.333,118.467h-102.4c-5.12,0-8.533-3.413-8.533-8.533V41.667c0-5.12,3.413-8.533,8.533-8.533h102.4
		c5.12,0,8.533,3.413,8.533,8.533v68.267C476.867,115.053,473.453,118.467,468.333,118.467z M374.467,101.4H459.8V50.2h-85.333
		V101.4z"/>
	<path d="M365.933,178.2c-5.12,0-8.533-3.413-8.533-8.533v-25.6c0-5.12,3.413-8.533,8.533-8.533s8.533,3.413,8.533,8.533v25.6
		C374.467,174.787,371.053,178.2,365.933,178.2z"/>
	<path d="M468.333,178.2c-5.12,0-8.533-3.413-8.533-8.533v-25.6c0-5.12,3.413-8.533,8.533-8.533c5.12,0,8.533,3.413,8.533,8.533
		v25.6C476.867,174.787,473.453,178.2,468.333,178.2z"/>
	<path d="M434.2,178.2c-5.12,0-8.533-3.413-8.533-8.533v-25.6c0-5.12,3.413-8.533,8.533-8.533c5.12,0,8.533,3.413,8.533,8.533v25.6
		C442.733,174.787,439.32,178.2,434.2,178.2z"/>
	<path d="M400.067,178.2c-5.12,0-8.533-3.413-8.533-8.533v-25.6c0-5.12,3.413-8.533,8.533-8.533s8.533,3.413,8.533,8.533v25.6
		C408.6,174.787,405.187,178.2,400.067,178.2z"/>
	<path d="M365.933,476.867c-5.12,0-8.533-3.413-8.533-8.533v-128c0-5.12,3.413-8.533,8.533-8.533s8.533,3.413,8.533,8.533v128
		C374.467,473.453,371.053,476.867,365.933,476.867z"/>
	<path d="M468.333,476.867c-5.12,0-8.533-3.413-8.533-8.533v-128c0-5.12,3.413-8.533,8.533-8.533c5.12,0,8.533,3.413,8.533,8.533
		v128C476.867,473.453,473.453,476.867,468.333,476.867z"/>
	<path d="M434.2,476.867c-5.12,0-8.533-3.413-8.533-8.533v-128c0-5.12,3.413-8.533,8.533-8.533c5.12,0,8.533,3.413,8.533,8.533v128
		C442.733,473.453,439.32,476.867,434.2,476.867z"/>
	<path d="M400.067,476.867c-5.12,0-8.533-3.413-8.533-8.533v-128c0-5.12,3.413-8.533,8.533-8.533s8.533,3.413,8.533,8.533v128
		C408.6,473.453,405.187,476.867,400.067,476.867z"/>
	<path d="M400.067,246.467h-34.133c-5.12,0-8.533-3.413-8.533-8.533V203.8c0-5.12,3.413-8.533,8.533-8.533h34.133
		c5.12,0,8.533,3.413,8.533,8.533v34.133C408.6,243.053,405.187,246.467,400.067,246.467z M374.467,229.4h17.067v-17.067h-17.067
		V229.4z"/>
	<path d="M468.333,314.733h-102.4c-5.12,0-8.533-3.413-8.533-8.533v-34.133c0-5.12,3.413-8.533,8.533-8.533h102.4
		c5.12,0,8.533,3.413,8.533,8.533V306.2C476.867,311.32,473.453,314.733,468.333,314.733z M374.467,297.667H459.8V280.6h-85.333
		V297.667z"/>
	<path d="M468.333,246.467H434.2c-5.12,0-8.533-3.413-8.533-8.533V203.8c0-5.12,3.413-8.533,8.533-8.533h34.133
		c5.12,0,8.533,3.413,8.533,8.533v34.133C476.867,243.053,473.453,246.467,468.333,246.467z M442.733,229.4H459.8v-17.067h-17.067
		V229.4z"/>
	<path d="M84.333,511h-51.2c-5.12,0-8.533-3.413-8.533-8.533V383c0-5.12,3.413-8.533,8.533-8.533h51.2
		c5.12,0,8.533,3.413,8.533,8.533v119.467C92.867,507.587,89.453,511,84.333,511z M41.667,493.933H75.8v-102.4H41.667V493.933z"/>
	<path d="M67.267,357.4c-14.507,0-25.6-11.093-25.6-25.6s11.093-25.6,25.6-25.6s25.6,11.093,25.6,25.6S81.773,357.4,67.267,357.4z
		 M67.267,323.267c-5.12,0-8.533,3.413-8.533,8.533s3.413,8.533,8.533,8.533S75.8,336.92,75.8,331.8S72.387,323.267,67.267,323.267z
		"/>
	<path d="M135.533,357.4c-14.507,0-25.6-11.093-25.6-25.6s11.093-25.6,25.6-25.6s25.6,11.093,25.6,25.6S150.04,357.4,135.533,357.4z
		 M135.533,323.267c-5.12,0-8.533,3.413-8.533,8.533s3.413,8.533,8.533,8.533s8.533-3.413,8.533-8.533
		S140.653,323.267,135.533,323.267z"/>
	<path d="M203.8,357.4c-14.507,0-25.6-11.093-25.6-25.6s11.093-25.6,25.6-25.6c14.507,0,25.6,11.093,25.6,25.6
		S218.307,357.4,203.8,357.4z M203.8,323.267c-5.12,0-8.533,3.413-8.533,8.533s3.413,8.533,8.533,8.533
		c5.12,0,8.533-3.413,8.533-8.533S208.92,323.267,203.8,323.267z"/>
	<path d="M272.067,357.4c-14.507,0-25.6-11.093-25.6-25.6s11.093-25.6,25.6-25.6s25.6,11.093,25.6,25.6S286.573,357.4,272.067,357.4
		z M272.067,323.267c-5.12,0-8.533,3.413-8.533,8.533s3.413,8.533,8.533,8.533s8.533-3.413,8.533-8.533
		S277.187,323.267,272.067,323.267z"/>
	<path d="M502.467,511H331.8c-5.12,0-8.533-3.413-8.533-8.533V7.533c0-5.12,3.413-8.533,8.533-8.533h170.667
		C507.587-1,511,2.413,511,7.533v494.933C511,507.587,507.587,511,502.467,511z M340.333,493.933h153.6V16.067h-153.6V493.933z"/>
	<path d="M331.8,391.533H58.733C25.453,391.533-1,365.08-1,331.8s26.453-59.733,59.733-59.733H331.8c5.12,0,8.533,3.413,8.533,8.533
		V383C340.333,388.12,336.92,391.533,331.8,391.533z M58.733,289.133c-23.893,0-42.667,18.773-42.667,42.667
		s18.773,42.667,42.667,42.667h264.533v-85.333H58.733z"/>
	<path d="M297.667,289.133H178.2v-102.4c0-9.387,7.68-17.067,17.067-17.067H280.6c9.387,0,17.067,7.68,17.067,17.067V289.133z
		 M195.267,272.067H280.6v-85.333h-85.333V272.067z"/>
	<path d="M152.6,289.133H33.133v-102.4c0-9.387,7.68-17.067,17.067-17.067h85.333c9.387,0,17.067,7.68,17.067,17.067V289.133z
		 M50.2,272.067h85.333v-85.333H50.2V272.067z"/>
	<path d="M118.467,220.867h-51.2v-51.2h51.2V220.867z M84.333,203.8H101.4v-17.067H84.333V203.8z"/>
	<path d="M263.533,220.867h-51.2v-51.2h51.2V220.867z M229.4,203.8h17.067v-17.067H229.4V203.8z"/>
</g>
</svg>